<?xml version="1.0" standalone="no"?>
<!DOCTYPE svg PUBLIC "-//W3C//DTD SVG 20010904//EN"
 "http://www.w3.org/TR/2001/REC-SVG-20010904/DTD/svg10.dtd">
<svg version="1.0" xmlns="http://www.w3.org/2000/svg"
 width="192.000000pt" height="192.000000pt" viewBox="0 0 192.000000 192.000000"
 preserveAspectRatio="xMidYMid meet">
<metadata>
Created by potrace 1.14, written by Peter Selinger 2001-2017
</metadata>
<g transform="translate(0.000000,192.000000) scale(0.100000,-0.100000)"
fill="#000000" stroke="none">
<path d="M949 1889 c-88 -9 -149 -31 -149 -53 0 -9 5 -16 10 -16 25 0 6 -18
-30 -29 -23 -7 -61 -31 -85 -55 -37 -35 -45 -49 -45 -79 0 -26 6 -41 23 -52
16 -13 19 -18 8 -22 -32 -13 -96 -82 -117 -128 -30 -63 -32 -140 -6 -154 31
-17 62 22 62 78 0 43 9 60 42 77 36 19 45 12 30 -21 -16 -35 -14 -44 3 -21 20
27 19 66 -1 66 -26 0 -71 -31 -83 -57 -6 -13 -11 -36 -11 -52 0 -15 -7 -36
-15 -47 -13 -16 -16 -17 -25 -4 -5 8 -10 26 -10 40 0 108 95 208 239 251 46
14 60 31 42 53 -14 17 12 30 41 20 15 -4 19 -13 16 -34 -2 -16 -1 -27 4 -24
12 8 9 50 -5 62 -6 6 -25 14 -40 17 -24 6 -34 1 -78 -44 -50 -51 -75 -61 -97
-39 -23 23 -13 60 27 98 39 37 82 57 171 81 l45 12 -38 7 c-79 14 -49 34 78
51 210 27 423 -39 599 -188 224 -188 353 -523 317 -820 -19 -155 -26 -140 -26
55 -1 159 -4 200 -23 276 -24 95 -85 235 -121 276 l-22 25 6 -52 c6 -43 4 -54
-9 -59 -24 -9 -20 -32 17 -88 l32 -51 -3 -135 c-4 -177 -14 -225 -73 -348
l-50 -103 21 -26 c55 -70 -15 -208 -192 -379 -86 -84 -135 -116 -217 -144 -82
-27 -108 -25 -46 4 114 53 281 204 374 337 73 103 77 159 14 159 -16 0 -23 4
-20 12 95 231 127 344 127 449 0 76 -23 162 -51 190 -27 27 -38 16 -32 -31 3
-22 3 -40 -1 -40 -3 0 -20 27 -37 61 -57 113 -154 184 -294 214 -90 19 -137
19 -210 0 -103 -27 -148 -76 -163 -177 -8 -56 -28 -72 -59 -47 -12 11 -14 26
-9 81 7 79 -5 88 -49 36 -24 -28 -26 -37 -20 -80 5 -32 3 -53 -5 -63 -18 -21
-47 -2 -59 38 -9 30 -9 30 -10 6 -1 -16 9 -37 25 -53 31 -30 37 -31 59 -10 13
14 15 29 10 78 -6 57 -5 63 19 85 29 27 31 23 16 -31 -18 -63 28 -134 69 -109
6 4 21 27 34 51 29 57 76 83 139 77 100 -9 221 -96 270 -194 33 -69 31 -187
-6 -301 -26 -81 -29 -85 -71 -103 -36 -16 -51 -18 -87 -9 -73 16 -154 12 -190
-10 -18 -11 -51 -21 -73 -21 l-40 -2 45 -8 c107 -18 211 -8 348 36 18 6 21 4
16 -8 -18 -47 -256 -73 -402 -43 l-81 17 -23 -23 c-13 -13 -23 -30 -23 -38 0
-17 -52 -27 -67 -12 -5 5 -27 7 -49 5 -55 -8 -48 9 12 31 29 10 63 29 77 43
24 24 28 25 75 14 75 -17 80 -11 7 8 -43 12 -69 15 -77 8 -9 -6 -28 -6 -54 1
-38 10 -47 8 -101 -21 l-60 -31 -61 22 c-74 26 -94 27 -136 6 -39 -20 -152
-40 -174 -31 -9 3 -30 30 -47 59 -28 46 -31 49 -26 22 6 -36 46 -86 163 -201
147 -145 282 -188 512 -164 257 27 381 92 507 267 56 78 80 133 109 248 25 99
31 82 14 -41 -14 -99 -40 -173 -83 -239 -44 -65 -126 -148 -185 -185 -44 -28
-88 -39 -76 -19 9 14 3 13 -55 -10 -28 -11 -66 -20 -84 -20 -19 0 -64 -14
-102 -32 -88 -41 -149 -46 -251 -20 -115 29 -220 75 -314 138 l-81 55 27 -48
c65 -112 81 -128 157 -164 72 -34 75 -34 210 -34 l136 0 94 47 93 47 125 4
c98 3 135 8 171 24 58 26 121 83 165 148 44 64 43 51 -2 -43 -41 -86 -98 -147
-179 -193 -31 -17 -54 -34 -51 -36 3 -3 26 7 52 22 159 93 243 249 280 520 6
43 8 46 15 25 4 -14 7 -42 8 -63 1 -53 19 -44 58 28 17 33 36 61 42 63 16 5
13 -37 -3 -54 -8 -7 -22 -35 -32 -61 -85 -235 -128 -310 -241 -420 -85 -85
-93 -96 -45 -66 104 65 193 170 257 305 36 77 68 111 39 42 -20 -47 -1 -35 32
22 14 24 28 44 30 44 7 0 -17 -53 -36 -80 -11 -15 -23 -36 -27 -46 -20 -50
-99 -170 -134 -205 -56 -56 -155 -127 -224 -161 l-60 -30 48 7 c65 9 60 -8
-13 -45 -87 -44 -166 -60 -335 -67 l-150 -7 72 -22 c312 -99 669 -15 915 215
97 91 155 170 213 293 66 139 88 243 89 408 0 163 -23 266 -90 409 -56 119
-113 198 -206 287 -193 183 -410 260 -659 233z m-129 -234 c10 -13 7 -17 -23
-30 -55 -23 -64 -18 -32 15 33 34 38 36 55 15z m-299 -1010 c113 -65 122 -67
244 -74 l110 -6 -43 -23 c-37 -20 -55 -22 -135 -20 -89 3 -95 2 -126 -25 -37
-30 -49 -30 -32 1 18 35 13 62 -14 72 -14 5 -25 16 -25 25 0 23 -9 18 -52 -27
-35 -39 -39 -40 -35 -18 2 14 8 33 12 44 7 15 0 13 -35 -10 -36 -24 -54 -29
-107 -29 -61 0 -64 1 -105 44 -38 38 -40 43 -18 36 14 -4 58 -9 98 -12 80 -6
117 5 153 43 12 13 24 24 26 24 2 0 40 -20 84 -45z m569 -34 l65 -6 -29 -22
c-16 -13 -39 -23 -51 -23 -15 0 -25 -8 -28 -21 -3 -12 -12 -19 -19 -17 -7 3
-17 -1 -23 -9 -7 -9 -22 -11 -48 -7 -32 6 -37 10 -31 28 l6 21 -23 -21 c-54
-49 -183 -94 -264 -94 -36 1 -31 4 55 33 121 41 180 74 205 114 18 30 24 32
70 31 28 0 79 -3 115 -7z"/>
<path d="M473 1540 c-36 -22 -44 -58 -18 -80 25 -21 46 4 69 78 9 28 -8 29
-51 2z m23 -45 c-18 -41 -39 -42 -44 -2 -2 20 3 29 25 41 34 18 39 9 19 -39z"/>
<path d="M666 1375 c-3 -9 -6 -24 -5 -33 0 -9 5 -4 10 12 9 32 6 48 -5 21z"/>
<path d="M701 1074 c-6 -14 -11 -30 -10 -37 0 -7 5 -1 10 13 l10 25 25 -40
c30 -50 32 -85 5 -85 -11 0 -27 10 -35 22 -9 12 -16 17 -16 11 0 -18 29 -43
50 -43 24 0 42 32 33 57 -4 10 -19 37 -33 60 l-27 42 -12 -25z"/>
<path d="M850 285 c-32 -35 -68 -53 -120 -61 -42 -7 -43 -6 -37 18 l7 25 -63
-14 c-77 -19 -197 -12 -284 15 -35 11 -63 18 -63 17 0 -2 24 -24 53 -49 l54
-46 121 -11 c107 -11 129 -10 182 4 33 9 67 17 76 17 16 0 16 -2 -1 -20 -32
-35 -108 -53 -207 -48 -76 4 -86 2 -66 -9 58 -31 388 0 388 38 0 5 -16 9 -35
9 -19 0 -35 3 -35 6 0 3 14 25 31 50 17 24 29 54 27 65 -3 20 -4 20 -28 -6z"/>
</g>
</svg>
